<svg width="22" height="24" viewBox="0 0 22 24" fill="none" xmlns="http://www.w3.org/2000/svg">
<path fill-rule="evenodd" clip-rule="evenodd" d="M21.3331 6.02263V1.22262C21.3361 1.04448 21.3037 0.867835 21.2384 0.705519C21.1731 0.543203 21.0765 0.399286 20.9556 0.284217C20.8348 0.16918 20.6928 0.0858089 20.5399 0.0401474C20.3869 -0.00551397 20.2269 -0.0123222 20.0713 0.0202161L7.30874 2.41182C7.05271 2.45488 6.81934 2.60121 6.65213 2.82355C6.48492 3.04588 6.39529 3.32904 6.39995 3.62023V15.0431C5.58655 14.5147 4.64091 14.3031 3.70971 14.441C2.77851 14.579 1.91379 15.0587 1.24965 15.8059C0.585518 16.5531 0.159088 17.5259 0.0365023 18.5735C-0.0860836 19.6211 0.102025 20.685 0.571653 21.6C1.04128 22.5151 1.76618 23.2303 2.63393 23.6346C3.50168 24.039 4.46377 24.1099 5.371 23.8364C6.27823 23.5629 7.07988 22.9603 7.65164 22.122C8.22339 21.2837 8.53329 20.2565 8.53326 19.1999V9.41504L19.1998 7.41584V12.6418C18.3865 12.1135 17.4409 11.9019 16.5097 12.0398C15.5786 12.1777 14.7139 12.6574 14.0497 13.4045C13.3856 14.1516 12.9591 15.1243 12.8364 16.1719C12.7138 17.2194 12.9018 18.2832 13.3713 19.1983C13.8408 20.1134 14.5656 20.8287 15.4332 21.2332C16.3008 21.6376 17.2629 21.7087 18.1701 21.4354C19.0773 21.1621 19.8791 20.5597 20.451 19.7216C21.0228 18.8835 21.3329 17.8565 21.3331 16.7999V6.02263Z" fill="#93BC30"/>
</svg>
