<svg width="24" height="24" viewBox="0 0 24 24" fill="none" xmlns="http://www.w3.org/2000/svg">
<path d="M9.88084 0C8.38338 0 6.94725 0.594865 5.88838 1.65373C4.82951 2.7126 4.23465 4.14873 4.23465 5.6462C4.23465 7.14366 4.82951 8.57979 5.88838 9.63866C6.94725 10.6975 8.38338 11.2924 9.88084 11.2924C11.3783 11.2924 12.8144 10.6975 13.8733 9.63866C14.9322 8.57979 15.527 7.14366 15.527 5.6462C15.527 4.14873 14.9322 2.7126 13.8733 1.65373C12.8144 0.594865 11.3783 0 9.88084 0ZM2.8358 12.7039C2.464 12.7023 2.09553 12.7741 1.75155 12.9152C1.40757 13.0563 1.09485 13.264 0.831353 13.5263C0.567857 13.7886 0.358772 14.1004 0.216104 14.4437C0.0734368 14.7871 -3.76441e-06 15.1552 1.44721e-10 15.527C1.44721e-10 17.914 1.17582 19.7137 3.01366 20.8867C4.82326 22.0399 7.26242 22.5848 9.88084 22.5848C11.2289 22.5848 12.5289 22.4408 13.7203 22.143L11.1371 19.317C10.3054 18.4085 9.85566 17.2145 9.88115 15.9831C9.90665 14.7516 10.4055 13.5773 11.274 12.7039H2.8358ZM17.6429 14.1197L16.7565 13.4238C16.0892 12.8994 15.249 12.6453 14.403 12.7119C13.5569 12.7786 12.7669 13.1611 12.19 13.7836C11.613 14.406 11.2915 15.2228 11.2891 16.0715C11.2868 16.9202 11.6039 17.7387 12.1774 18.3643L17.1221 23.7705C17.1882 23.8428 17.2687 23.9006 17.3584 23.9401C17.448 23.9796 17.545 24 17.6429 24C17.7409 24 17.8379 23.9796 17.9275 23.9401C18.0172 23.9006 18.0977 23.8428 18.1638 23.7705L23.1099 18.3643C23.6834 17.7387 24.0005 16.9202 23.9982 16.0715C23.9958 15.2228 23.6743 14.406 23.0973 13.7836C22.5204 13.1611 21.7304 12.7786 20.8843 12.7119C20.0383 12.6453 19.1981 12.8994 18.5308 13.4238L17.6429 14.1197Z" fill="#C5C5C5"/>
</svg>
