<svg width="375" height="464" viewBox="0 0 375 464" fill="none" xmlns="http://www.w3.org/2000/svg">
<path d="M237.612 211.385C356.077 150.029 395.132 149.05 456.176 211.385L520 742H-76V281.956C-8.99976 233.037 116.608 274.056 237.612 211.385Z" fill="url(#paint0_linear_0_1)"/>
<g filter="url(#filter0_d_0_1)">
<path d="M49.772 209.746C-74.1817 163.311 -226.051 175.737 -300 242.703V781H422V286.777C340.835 234.223 201.729 266.671 49.772 209.746Z" fill="url(#paint1_linear_0_1)"/>
</g>
<ellipse cx="35" cy="265" rx="14" ry="4" fill="#F1FEB4" fill-opacity="0.8"/>
<ellipse cx="65.5" cy="283" rx="6.5" ry="2" fill="#F1FEB4" fill-opacity="0.8"/>
<ellipse cx="45" cy="296" rx="14" ry="4" fill="#F1FEB4" fill-opacity="0.8"/>
<path d="M199.053 128.867C212.748 56.7762 189.164 -17.9347 131.8 14.7378C110.955 30.4418 110.95 64.3599 130.729 75.4498C145.809 83.9054 190.461 98.0115 189.927 127.512C189.894 129.343 190.756 131.102 192.356 131.986C195.052 133.475 198.475 131.909 199.053 128.867Z" fill="url(#paint2_linear_0_1)"/>
<path d="M187.301 134.785C173.606 62.6937 197.19 -12.0172 254.553 20.6553C278.661 38.1076 275.404 70.2774 255.625 81.3672C240.545 89.8229 195.893 103.929 196.427 133.43C196.46 135.261 195.597 137.019 193.998 137.903C191.302 139.393 187.879 137.827 187.301 134.785Z" fill="url(#paint3_linear_0_1)"/>
<path d="M210.675 127.462C216.89 71.5966 251.131 21.4485 285.968 57.2533C299.768 75.0408 290.101 98.0517 273.036 102.16C260.027 105.292 223.981 106.522 217.7 128.337C217.309 129.697 216.275 130.819 214.896 131.141C212.575 131.685 210.413 129.826 210.675 127.462Z" fill="url(#paint4_linear_0_1)"/>
<path d="M192.702 132.303C180.881 66.9838 112.622 24.876 90.3615 75.8797C88.4438 80.2736 87.5681 85.2143 88.5358 89.9631C93.9657 116.608 129.857 117.134 149.859 117.757C161.849 118.13 167.939 123.728 174.963 137.088C178.835 144.452 189.763 144.246 192.379 136.509C192.834 135.164 192.957 133.713 192.702 132.303Z" fill="url(#paint5_linear_0_1)"/>
<path d="M174.644 153.733C146.497 106.19 102.901 75.5413 72.2806 115.944C67.4023 122.38 65.0602 130.655 66.9271 138.603C72.5238 162.429 95.0653 168.947 119.62 162.848C133.154 159.487 151.139 147.269 164.292 158.878C167.631 161.824 174.251 161.162 175.168 156.919C175.401 155.841 175.217 154.7 174.644 153.733Z" fill="url(#paint6_linear_0_1)"/>
<path d="M222.52 127.881C158.359 88.2854 79.4079 152.269 119.24 204.194C142.344 227.012 185.393 220.824 192.098 182.095C194.406 168.765 196.336 147.788 215.394 145.085C221.747 144.184 227.509 138.624 225.933 132.558C225.433 130.633 224.223 128.932 222.52 127.881Z" fill="url(#paint7_linear_0_1)"/>
<path d="M218.189 138.649C184.727 93.6762 142.228 25.769 186.892 13.7743C194.833 11.6417 203.663 13.2826 209.902 18.402C228.919 34.0049 220.571 58.482 213.088 74.9572C206.466 89.5344 203.521 111.335 223.92 134.231C224.855 135.28 225.11 136.749 224.526 138.01C223.376 140.496 219.834 140.861 218.189 138.649Z" fill="url(#paint8_linear_0_1)"/>
<path d="M207.147 174.637C206.875 120.471 230.633 16.5707 165.563 35.6045C157.286 38.0255 149.982 43.6622 146.276 51.3838C131.203 82.7947 161.566 100.723 177.441 111.499C198.405 125.73 195.765 116.328 203.247 139.477C204.442 143.174 205.19 147.022 205.465 150.911L207.147 174.637Z" fill="url(#paint9_linear_0_1)"/>
<path d="M206.758 119.387C215.742 51.3407 326.981 68.0466 298.76 148.705C290.912 171.135 256.423 179.611 245.281 166.634C237.617 157.708 220.002 151.964 209.534 135.742C206.4 130.884 205.914 124.99 206.758 119.387Z" fill="url(#paint10_linear_0_1)"/>
<path d="M122.711 122.29C125.407 125.437 143.688 148.785 143.688 148.785L135.419 147.994C135.419 147.994 121.04 127.888 119.147 124.892C117.254 121.896 120.014 119.143 122.711 122.29Z" fill="url(#paint11_linear_0_1)"/>
<ellipse cx="11.9168" cy="6.50109" rx="11.9168" ry="6.50109" transform="matrix(0.881798 0.471627 -0.507937 0.861394 265.562 84.7524)" fill="#FFF7B6" fill-opacity="0.5"/>
<ellipse cx="5.01912" cy="3.3166" rx="5.01912" ry="3.3166" transform="matrix(0.885806 0.464056 -0.500148 0.86594 284.523 105.941)" fill="#FFF7B6" fill-opacity="0.5"/>
<ellipse cx="105.345" cy="116.248" rx="3.97677" ry="3.78741" fill="#FFF7B6"/>
<ellipse cx="100.338" cy="120.322" rx="3.97677" ry="3.78741" fill="#FFF7B6"/>
<ellipse cx="101.811" cy="126.027" rx="3.97677" ry="3.78741" fill="#FFF7B6"/>
<ellipse cx="108.88" cy="126.027" rx="3.97677" ry="3.78741" fill="#FFF7B6"/>
<ellipse cx="110.354" cy="120.322" rx="3.97677" ry="3.78741" fill="#FFF7B6"/>
<ellipse cx="105.346" cy="121.832" rx="2.99485" ry="2.85224" fill="#FFCC00"/>
<ellipse cx="174.655" cy="36.3851" rx="3.97677" ry="3.78741" fill="#FFF7B6"/>
<ellipse cx="169.648" cy="40.4598" rx="3.97677" ry="3.78741" fill="#FFF7B6"/>
<ellipse cx="171.12" cy="46.1644" rx="3.97677" ry="3.78741" fill="#FFF7B6"/>
<ellipse cx="178.189" cy="46.1644" rx="3.97677" ry="3.78741" fill="#FFF7B6"/>
<ellipse cx="179.663" cy="40.4598" rx="3.97677" ry="3.78741" fill="#FFF7B6"/>
<ellipse cx="174.656" cy="41.9694" rx="2.99485" ry="2.85224" fill="#FFCC00"/>
<ellipse cx="125.882" cy="55.9432" rx="3.97677" ry="3.78741" fill="#FFF7B6"/>
<ellipse cx="120.874" cy="60.0174" rx="3.97677" ry="3.78741" fill="#FFF7B6"/>
<ellipse cx="122.347" cy="65.722" rx="3.97677" ry="3.78741" fill="#FFF7B6"/>
<ellipse cx="129.416" cy="65.722" rx="3.97677" ry="3.78741" fill="#FFF7B6"/>
<ellipse cx="130.89" cy="60.0174" rx="3.97677" ry="3.78741" fill="#FFF7B6"/>
<ellipse cx="125.882" cy="61.5271" rx="2.99485" ry="2.85224" fill="#FFCC00"/>
<ellipse cx="150.696" cy="90.9852" rx="3.97677" ry="3.78741" fill="#FFF7B6"/>
<ellipse cx="145.689" cy="95.0599" rx="3.97677" ry="3.78741" fill="#FFF7B6"/>
<ellipse cx="147.161" cy="100.764" rx="3.97677" ry="3.78741" fill="#FFF7B6"/>
<ellipse cx="154.23" cy="100.764" rx="3.97677" ry="3.78741" fill="#FFF7B6"/>
<ellipse cx="155.705" cy="95.0599" rx="3.97677" ry="3.78741" fill="#FFF7B6"/>
<ellipse cx="150.697" cy="96.569" rx="2.99485" ry="2.85224" fill="#FFCC00"/>
<ellipse cx="237.119" cy="33.9402" rx="3.97677" ry="3.78741" fill="#FFF7B6"/>
<ellipse cx="232.112" cy="38.0149" rx="3.97677" ry="3.78741" fill="#FFF7B6"/>
<ellipse cx="233.584" cy="43.7195" rx="3.97677" ry="3.78741" fill="#FFF7B6"/>
<ellipse cx="240.653" cy="43.7195" rx="3.97677" ry="3.78741" fill="#FFF7B6"/>
<ellipse cx="242.127" cy="38.0149" rx="3.97677" ry="3.78741" fill="#FFF7B6"/>
<ellipse cx="237.119" cy="39.5246" rx="2.99485" ry="2.85224" fill="#FFCC00"/>
<ellipse cx="154.119" cy="183.072" rx="3.97677" ry="3.78741" fill="#FFF7B6"/>
<ellipse cx="149.112" cy="187.147" rx="3.97677" ry="3.78741" fill="#FFF7B6"/>
<ellipse cx="150.584" cy="192.851" rx="3.97677" ry="3.78741" fill="#FFF7B6"/>
<ellipse cx="157.653" cy="192.851" rx="3.97677" ry="3.78741" fill="#FFF7B6"/>
<ellipse cx="159.127" cy="187.147" rx="3.97677" ry="3.78741" fill="#FFF7B6"/>
<ellipse cx="154.119" cy="188.656" rx="2.99485" ry="2.85224" fill="#FFCC00"/>
<ellipse cx="10.1562" cy="12.2628" rx="10.1562" ry="12.2628" transform="matrix(0.863306 0.504681 -0.541741 0.840546 258.535 97.7915)" fill="url(#paint12_linear_0_1)"/>
<g filter="url(#filter1_d_0_1)">
<ellipse cx="10.2529" cy="12.1396" rx="10.2529" ry="12.1396" transform="matrix(0.966065 -0.258299 0.282749 0.959194 228.991 98.1982)" fill="url(#paint13_linear_0_1)"/>
</g>
<path d="M191.353 58.6778C191.78 63.1602 195.381 100.793 195.381 100.793L185.955 86.5322C185.955 86.5322 187.076 61.5292 187.076 58.6779C187.076 55.8266 190.926 54.1955 191.353 58.6778Z" fill="url(#paint14_linear_0_1)"/>
<path d="M247.911 127.139C245.614 124.775 224.252 111.506 221.255 108.508C218.259 105.51 223.709 103.148 226.946 106.133C230.184 109.118 249.366 123.459 251.016 125.737C252.666 128.016 250.208 129.503 247.911 127.139Z" fill="url(#paint15_linear_0_1)"/>
<path d="M292.204 124.629C288.293 125.137 232.622 124.651 227.575 125.24C222.529 125.83 224.302 131.522 229.589 131.099C234.877 130.676 290.97 129.017 294.155 128.163C297.34 127.308 296.115 124.121 292.204 124.629Z" fill="url(#paint16_linear_0_1)"/>
<path d="M221.176 113.937C225.073 115.705 269.049 140.858 274.018 143.198C278.986 145.537 283.247 144.639 278.218 142.019C273.188 139.4 223.324 111.195 219.751 110.135C216.179 109.076 217.278 112.168 221.176 113.937Z" fill="url(#paint17_linear_0_1)"/>
<path d="M243.372 127.689C248.804 128.485 273.235 136.168 277.465 136.731C281.696 137.293 284.474 140.379 280.852 140.388C278.219 140.394 250.618 130.983 233.597 125.448C225.725 123.411 217.084 120.871 220.786 121.558C222.317 121.841 227.213 123.372 233.597 125.448C237.662 126.5 241.522 127.418 243.372 127.689Z" fill="url(#paint18_linear_0_1)"/>
<path d="M240.445 125.221C245.629 126.962 268.143 138.82 272.191 140.119C276.239 141.418 278.369 144.94 274.809 144.31C271.453 143.716 245.762 127.996 238.371 124.506C234.488 123.131 232.671 122.283 237.232 124.01C237.538 124.126 237.92 124.293 238.371 124.506C239.012 124.733 239.71 124.975 240.445 125.221Z" fill="url(#paint19_linear_0_1)"/>
<path d="M234.192 117.963C239 120.499 259.132 135.756 262.896 137.678C266.661 139.6 268.147 143.41 264.746 142.225C261.541 141.109 238.951 121.54 232.271 116.929C228.682 114.958 227.039 113.835 231.235 116.26C231.516 116.422 231.864 116.648 232.271 116.929C232.864 117.254 233.51 117.603 234.192 117.963Z" fill="url(#paint20_linear_0_1)"/>
<path d="M215.86 121.585C219.796 121.873 274.827 134.41 279.891 134.847C284.955 135.283 284.642 130.397 279.38 129.75C274.117 129.102 218.916 119.467 215.614 119.664C212.311 119.86 211.924 121.297 215.86 121.585Z" fill="url(#paint21_linear_0_1)"/>
<path d="M239.474 127.887C243.389 127.408 288.299 124.552 293.35 124.001C298.402 123.45 294.153 120.38 288.862 120.763C283.57 121.145 254.403 120.6 251.211 121.43C248.019 122.261 235.558 128.365 239.474 127.887Z" fill="url(#paint22_linear_0_1)"/>
<path d="M298.238 128.803C294.919 129.626 279.927 129.415 268.747 129.452C265.048 129.984 262.257 130.47 261.363 130.842C258.071 132.211 252.451 130.97 256.417 129.928C257.805 129.563 262.723 129.471 268.747 129.452C278.66 128.025 295.09 126.264 298.968 125.466C304.291 124.37 303.345 127.537 298.238 128.803Z" fill="url(#paint23_linear_0_1)"/>
<path d="M251.451 128.507C248.452 127.017 223.649 121.365 219.768 119.502C215.887 117.639 219.835 115.986 223.938 117.76C228.04 119.534 251.17 126.894 253.529 128.511C255.888 130.128 254.449 129.998 251.451 128.507Z" fill="url(#paint24_linear_0_1)"/>
<path d="M244.255 127.889C247.501 126.985 272.986 126.054 277.174 124.948C281.362 123.842 277.96 119.148 273.573 120.125C269.185 121.102 244.992 124.021 242.347 125.168C239.702 126.315 241.009 128.794 244.255 127.889Z" fill="url(#paint25_linear_0_1)"/>
<path d="M260.021 127.136C257.097 125.516 232.589 118.795 228.802 116.765C225.014 114.736 228.262 113.678 232.275 115.628C236.289 117.578 260.279 123.211 262.558 124.929C264.837 126.646 262.944 128.755 260.021 127.136Z" fill="url(#paint26_linear_0_1)"/>
<path d="M239.576 129.267C242.953 129.442 277.396 136.864 281.732 137.149C286.068 137.433 274.415 131.702 269.936 131.233C265.458 130.765 241.623 125.852 238.728 126.096C235.833 126.339 236.199 129.091 239.576 129.267Z" fill="url(#paint27_linear_0_1)"/>
<path d="M279.944 125.504C276.033 126.012 220.362 125.526 215.315 126.115C210.268 126.705 211.28 128.701 216.567 128.278C221.855 127.856 278.71 129.892 281.895 129.038C285.08 128.183 283.855 124.996 279.944 125.504Z" fill="url(#paint28_linear_0_1)"/>
<path d="M229.197 121.803C225.285 122.311 218.97 120.961 213.923 121.55C208.876 122.14 209.887 124.136 215.175 123.713C220.463 123.291 229.007 123.666 232.192 122.812C235.377 121.957 233.108 121.294 229.197 121.803Z" fill="url(#paint29_linear_0_1)"/>
<path d="M226.355 122.304C222.818 123.973 224.637 122.238 220.05 124.328C215.464 126.418 217.09 128.003 221.961 125.998C226.832 123.993 226.799 124.128 229.532 122.352C232.265 120.575 229.892 120.636 226.355 122.304Z" fill="url(#paint30_linear_0_1)"/>
<path d="M219.958 120.204C216.92 117.803 219.323 118.682 215.454 115.54C211.586 112.398 210.725 114.457 214.628 117.881C218.531 121.305 218.388 121.331 221.203 122.988C224.018 124.644 222.996 122.604 219.958 120.204Z" fill="url(#paint31_linear_0_1)"/>
<path d="M224.848 131.842C229.151 129.263 227.554 131.186 230.866 129.14C232.539 128.108 232.654 128.462 232.54 128.874C233.203 128.451 233.347 128.409 232.79 129C232.094 129.738 232.427 129.278 232.54 128.874C231.529 129.519 229.314 131.048 226.539 132.574C221.943 135.099 220.545 134.421 224.848 131.842Z" fill="url(#paint32_linear_0_1)"/>
<path d="M222.984 129.249C228.029 128.644 225.727 129.743 229.637 129.223C231.611 128.96 231.558 129.328 231.272 129.655C232.06 129.539 232.21 129.559 231.443 129.87C230.485 130.258 230.991 129.976 231.272 129.655C230.07 129.833 227.384 130.327 224.192 130.593C218.905 131.032 217.939 129.855 222.984 129.249Z" fill="url(#paint33_linear_0_1)"/>
<path d="M196.173 131.733C237.865 99.6431 279.058 145.037 261.947 185.396C251.272 210.575 208.507 213.838 197.365 200.861C190.092 192.39 191.765 197.688 187.33 187.018C184.88 181.123 183.651 174.816 183.651 168.505L183.651 161.287C183.651 149.999 187.218 138.626 196.173 131.733Z" fill="url(#paint34_linear_0_1)"/>
<path d="M168.748 68.8622C171.46 71.997 199.552 132.019 199.552 132.019L210.244 119.795C210.244 119.795 174.452 67.9567 171.739 65.6017C169.025 63.2466 166.037 65.7274 168.748 68.8622Z" fill="url(#paint35_linear_0_1)"/>
<path d="M238.711 94.877C235.999 98.0118 190.365 163.331 190.365 163.331L186.949 144.181C186.949 144.181 233.004 92.7516 235.717 90.3965C238.431 88.0414 241.422 91.7422 238.711 94.877Z" fill="url(#paint36_linear_0_1)"/>
<path d="M234.49 170.353C231.712 171.547 207.498 184.785 207.498 184.785L212.643 172.492C212.643 172.492 232.026 167.579 233.84 166.972C235.654 166.365 237.267 169.16 234.49 170.353Z" fill="url(#paint37_linear_0_1)"/>
<path d="M174.048 194.862C178.872 214.902 166.547 282.657 166.547 282.657L165.047 297.449H211.549C211.549 297.449 190.48 224.776 199.049 204.882C207.617 184.989 209.329 181.322 209.329 181.322L210.612 178.877C211.04 178.062 211.468 177.655 212.324 176.025L213.607 173.58C213.607 173.58 227.048 154.782 229.05 152.396C231.052 150.01 227.052 148.102 225.552 150.01C224.052 151.919 193.499 182.137 193.499 182.137L191.787 164.209L189.22 144.65C189.22 144.65 187.048 122.336 186.048 119.473C185.048 116.61 180.548 116.61 180.548 121.381C180.548 126.153 179.048 171.959 179.048 171.959C179.048 171.959 165.785 158.902 156.547 152.873C152.428 150.185 144.035 146.182 140.447 145.058C136.859 143.933 134.457 143.02 130.607 141.899C130.607 141.899 112.044 138.082 108.544 137.127C105.044 136.173 103.546 140.944 106.544 141.899C109.542 142.853 135.472 148.968 148.546 158.599C163.324 169.485 169.223 174.822 174.048 194.862Z" fill="url(#paint38_linear_0_1)"/>
<ellipse cx="250.809" cy="154.549" rx="3.97677" ry="3.78741" fill="#FFF7B6"/>
<ellipse cx="245.802" cy="158.624" rx="3.97677" ry="3.78741" fill="#FFF7B6"/>
<ellipse cx="247.275" cy="164.328" rx="3.97677" ry="3.78741" fill="#FFF7B6"/>
<ellipse cx="254.344" cy="164.328" rx="3.97677" ry="3.78741" fill="#FFF7B6"/>
<ellipse cx="255.818" cy="158.624" rx="3.97677" ry="3.78741" fill="#FFF7B6"/>
<ellipse cx="250.81" cy="160.134" rx="2.99485" ry="2.85224" fill="#FFCC00"/>
<path d="M246.198 297.971C238.848 287.964 179.268 254.739 136.926 295.297C132.052 299.966 127.54 306.749 136.314 317.967C145.088 329.184 236.022 324.411 241.909 320.55C247.797 316.688 253.549 307.978 246.198 297.971Z" fill="url(#paint39_linear_0_1)"/>
<path d="M246.198 297.971C238.848 287.964 179.268 254.739 136.926 295.297C132.052 299.966 127.54 306.749 136.314 317.967C145.088 329.184 236.022 324.411 241.909 320.55C247.797 316.688 253.549 307.978 246.198 297.971Z" fill="black" fill-opacity="0.2"/>
<path d="M246.198 297.971C238.848 287.964 179.268 254.739 136.926 295.297C132.052 299.966 127.54 306.749 136.314 317.967C145.088 329.184 236.022 324.411 241.909 320.55C247.797 316.688 253.549 307.978 246.198 297.971Z" fill="url(#paint40_linear_0_1)" fill-opacity="0.2"/>
<ellipse cx="163.707" cy="289.751" rx="4.30809" ry="2.34454" fill="#FFF7B6" fill-opacity="0.6"/>
<ellipse cx="153.244" cy="294.44" rx="3.69264" ry="2.34454" fill="#FFF7B6" fill-opacity="0.6"/>
<path d="M285.762 290.753L282.767 292.217L283.336 293.158L285.013 292.589L286.352 292.05C287.464 291.742 286.529 290.278 285.762 290.753Z" fill="url(#paint41_linear_0_1)"/>
<path d="M262.873 302.197C264.011 297.266 268.732 293.784 270.951 292.659L278.791 296.69L280.19 305.287C278.18 307.922 274.154 309.883 272.392 310.534C269.863 311.738 266.094 310.902 264.525 310.334C263.922 310.01 263.213 310.409 262.934 310.65C262.689 310.666 262.725 310.532 262.773 310.463C263.407 309.919 263.351 309.157 263.244 308.844C262.564 307.225 262.714 303.738 262.873 302.197Z" fill="url(#paint42_linear_0_1)"/>
<path d="M270.369 291.135C268.964 292.213 268.934 293.233 269.094 293.608C271.501 294.616 274.656 297.815 275.978 299.352C277.659 301.307 279.402 303.993 280.104 305.28C280.925 305.934 282.522 304.236 283.384 303.35C287.254 299.374 285.321 294.394 283.56 292.346C277.401 285.655 272.126 289.786 270.369 291.135Z" fill="url(#paint43_linear_0_1)"/>
<path d="M268.095 297.699C266.96 298.733 266.016 300.679 265.531 300.147C265.046 299.615 266.056 297.681 267.191 296.647C268.326 295.613 269.368 294.845 269.853 295.378C270.338 295.91 269.231 296.664 268.095 297.699Z" fill="#CAB18B" fill-opacity="0.9"/>
<path d="M251.759 329.194L255.311 330.93L254.637 332.045L252.648 331.371L251.06 330.732C249.741 330.366 250.85 328.63 251.759 329.194Z" fill="url(#paint44_linear_0_1)"/>
<path d="M278.902 342.765C277.553 336.917 271.954 332.788 269.323 331.454L260.027 336.234L258.367 346.428C260.751 349.554 265.525 351.879 267.615 352.651C270.614 354.078 275.083 353.087 276.943 352.414C277.658 352.029 278.499 352.503 278.831 352.788C279.121 352.807 279.078 352.649 279.02 352.567C278.27 351.921 278.336 351.018 278.463 350.647C279.268 348.727 279.091 344.592 278.902 342.765Z" fill="url(#paint45_linear_0_1)"/>
<path d="M270.013 329.647C271.679 330.926 271.715 332.135 271.525 332.58C268.672 333.775 264.929 337.569 263.362 339.391C261.368 341.71 259.301 344.895 258.47 346.421C257.495 347.196 255.602 345.182 254.579 344.132C249.99 339.417 252.282 333.512 254.371 331.083C261.675 323.148 267.93 328.048 270.013 329.647Z" fill="url(#paint46_linear_0_1)"/>
<path d="M272.709 337.43C274.056 338.657 275.175 340.965 275.75 340.334C276.325 339.702 275.128 337.409 273.782 336.183C272.436 334.957 271.201 334.047 270.626 334.678C270.051 335.309 271.363 336.204 272.709 337.43Z" fill="#CAB18B" fill-opacity="0.9"/>
<defs>
<filter id="filter0_d_0_1" x="-303.6" y="158.4" width="773.2" height="650.2" filterUnits="userSpaceOnUse" color-interpolation-filters="sRGB">
<feFlood flood-opacity="0" result="BackgroundImageFix"/>
<feColorMatrix in="SourceAlpha" type="matrix" values="0 0 0 0 0 0 0 0 0 0 0 0 0 0 0 0 0 0 127 0" result="hardAlpha"/>
<feOffset dx="22" dy="2"/>
<feGaussianBlur stdDeviation="12.8"/>
<feComposite in2="hardAlpha" operator="out"/>
<feColorMatrix type="matrix" values="0 0 0 0 0.885903 0 0 0 0 1 0 0 0 0 0.779167 0 0 0 0.07 0"/>
<feBlend mode="normal" in2="BackgroundImageFix" result="effect1_dropShadow_0_1"/>
<feBlend mode="normal" in="SourceGraphic" in2="effect1_dropShadow_0_1" result="shape"/>
</filter>
<filter id="filter1_d_0_1" x="228.158" y="94.3463" width="28.3402" height="31.257" filterUnits="userSpaceOnUse" color-interpolation-filters="sRGB">
<feFlood flood-opacity="0" result="BackgroundImageFix"/>
<feColorMatrix in="SourceAlpha" type="matrix" values="0 0 0 0 0 0 0 0 0 0 0 0 0 0 0 0 0 0 127 0" result="hardAlpha"/>
<feOffset dy="2.78068"/>
<feGaussianBlur stdDeviation="1.8422"/>
<feComposite in2="hardAlpha" operator="out"/>
<feColorMatrix type="matrix" values="0 0 0 0 0 0 0 0 0 0 0 0 0 0 0 0 0 0 0.1 0"/>
<feBlend mode="normal" in2="BackgroundImageFix" result="effect1_dropShadow_0_1"/>
<feBlend mode="normal" in="SourceGraphic" in2="effect1_dropShadow_0_1" result="shape"/>
</filter>
<linearGradient id="paint0_linear_0_1" x1="207.766" y1="138.409" x2="222.352" y2="741.992" gradientUnits="userSpaceOnUse">
<stop stop-color="#CCEA7A"/>
<stop offset="1" stop-color="#578127"/>
</linearGradient>
<linearGradient id="paint1_linear_0_1" x1="78.2434" y1="132.565" x2="64.3454" y2="781.072" gradientUnits="userSpaceOnUse">
<stop stop-color="#EDF6A2"/>
<stop offset="1" stop-color="#578127"/>
</linearGradient>
<linearGradient id="paint2_linear_0_1" x1="157.56" y1="3.26025" x2="191.567" y2="126.387" gradientUnits="userSpaceOnUse">
<stop stop-color="#BACD3F"/>
<stop offset="0.52875" stop-color="#84A220"/>
<stop offset="1" stop-color="#5E7C0B"/>
</linearGradient>
<linearGradient id="paint3_linear_0_1" x1="214.975" y1="13.0215" x2="213.346" y2="98.6096" gradientUnits="userSpaceOnUse">
<stop stop-color="#BACD3F"/>
<stop offset="0.520797" stop-color="#93AE32"/>
<stop offset="1" stop-color="#657C07"/>
</linearGradient>
<linearGradient id="paint4_linear_0_1" x1="258.561" y1="43.5217" x2="251.146" y2="133.574" gradientUnits="userSpaceOnUse">
<stop stop-color="#BACD3F"/>
<stop offset="0.735961" stop-color="#84A32D"/>
</linearGradient>
<linearGradient id="paint5_linear_0_1" x1="117.18" y1="59.2642" x2="183.384" y2="126.283" gradientUnits="userSpaceOnUse">
<stop stop-color="#BACD3F"/>
<stop offset="0.648502" stop-color="#84A32D"/>
<stop offset="0.869411" stop-color="#779428"/>
</linearGradient>
<linearGradient id="paint6_linear_0_1" x1="94.9481" y1="100.814" x2="130.262" y2="213.001" gradientUnits="userSpaceOnUse">
<stop stop-color="#BACD3F"/>
<stop offset="1" stop-color="#84A32D"/>
</linearGradient>
<linearGradient id="paint7_linear_0_1" x1="148.148" y1="127.129" x2="207.078" y2="212.577" gradientUnits="userSpaceOnUse">
<stop stop-color="#BACD3F"/>
<stop offset="1" stop-color="#84A32D"/>
</linearGradient>
<linearGradient id="paint8_linear_0_1" x1="164.711" y1="27.2289" x2="249.663" y2="112.041" gradientUnits="userSpaceOnUse">
<stop stop-color="#BACD3F"/>
<stop offset="1" stop-color="#84A32D"/>
</linearGradient>
<linearGradient id="paint9_linear_0_1" x1="192.271" y1="58.3503" x2="211.764" y2="128.209" gradientUnits="userSpaceOnUse">
<stop stop-color="#BACD3F"/>
<stop offset="1" stop-color="#84A32D"/>
</linearGradient>
<linearGradient id="paint10_linear_0_1" x1="299.672" y1="117.733" x2="211.701" y2="151.618" gradientUnits="userSpaceOnUse">
<stop stop-color="#BACD3F"/>
<stop offset="1" stop-color="#84A32D"/>
</linearGradient>
<linearGradient id="paint11_linear_0_1" x1="127.716" y1="130.451" x2="169.03" y2="146.112" gradientUnits="userSpaceOnUse">
<stop stop-color="#A1613F"/>
<stop offset="1" stop-color="#331D12"/>
</linearGradient>
<linearGradient id="paint12_linear_0_1" x1="-2.53206" y1="-4.78159" x2="19.6862" y2="21.7654" gradientUnits="userSpaceOnUse">
<stop offset="0.0264266" stop-color="#FFF9CC"/>
<stop offset="1" stop-color="#CDAE78"/>
</linearGradient>
<linearGradient id="paint13_linear_0_1" x1="2.65045" y1="-9.05579" x2="11.4702" y2="25.131" gradientUnits="userSpaceOnUse">
<stop stop-color="#FFF9CC"/>
<stop offset="1" stop-color="#CDAE78"/>
</linearGradient>
<linearGradient id="paint14_linear_0_1" x1="191.403" y1="71.7194" x2="195.517" y2="133.359" gradientUnits="userSpaceOnUse">
<stop stop-color="#A1613F"/>
<stop offset="1" stop-color="#331D12"/>
</linearGradient>
<linearGradient id="paint15_linear_0_1" x1="296.25" y1="153.01" x2="212.574" y2="138.429" gradientUnits="userSpaceOnUse">
<stop stop-color="#A1613F"/>
<stop offset="1" stop-color="#331D12"/>
</linearGradient>
<linearGradient id="paint16_linear_0_1" x1="334.151" y1="136.273" x2="239.796" y2="90.4329" gradientUnits="userSpaceOnUse">
<stop stop-color="#A1613F"/>
<stop offset="1" stop-color="#331D12"/>
</linearGradient>
<linearGradient id="paint17_linear_0_1" x1="191.015" y1="78.5388" x2="232.159" y2="171.508" gradientUnits="userSpaceOnUse">
<stop stop-color="#A1613F"/>
<stop offset="1" stop-color="#331D12"/>
</linearGradient>
<linearGradient id="paint18_linear_0_1" x1="317.115" y1="161.052" x2="239.235" y2="85.0083" gradientUnits="userSpaceOnUse">
<stop stop-color="#A1613F"/>
<stop offset="1" stop-color="#331D12"/>
</linearGradient>
<linearGradient id="paint19_linear_0_1" x1="306.426" y1="171.012" x2="244.421" y2="82.7304" gradientUnits="userSpaceOnUse">
<stop stop-color="#A1613F"/>
<stop offset="1" stop-color="#331D12"/>
</linearGradient>
<linearGradient id="paint20_linear_0_1" x1="291.264" y1="173.561" x2="244.758" y2="77.0626" gradientUnits="userSpaceOnUse">
<stop stop-color="#A1613F"/>
<stop offset="1" stop-color="#331D12"/>
</linearGradient>
<linearGradient id="paint21_linear_0_1" x1="178.149" y1="102.676" x2="259.663" y2="167.155" gradientUnits="userSpaceOnUse">
<stop stop-color="#A1613F"/>
<stop offset="1" stop-color="#331D12"/>
</linearGradient>
<linearGradient id="paint22_linear_0_1" x1="186.879" y1="112.16" x2="280.823" y2="158.763" gradientUnits="userSpaceOnUse">
<stop stop-color="#A1613F"/>
<stop offset="1" stop-color="#331D12"/>
</linearGradient>
<linearGradient id="paint23_linear_0_1" x1="198.508" y1="127.738" x2="285.576" y2="171.848" gradientUnits="userSpaceOnUse">
<stop stop-color="#A1613F"/>
<stop offset="1" stop-color="#331D12"/>
</linearGradient>
<linearGradient id="paint24_linear_0_1" x1="306.104" y1="137.386" x2="222.674" y2="153.201" gradientUnits="userSpaceOnUse">
<stop stop-color="#A1613F"/>
<stop offset="1" stop-color="#331D12"/>
</linearGradient>
<linearGradient id="paint25_linear_0_1" x1="188.827" y1="126.434" x2="266.893" y2="158.708" gradientUnits="userSpaceOnUse">
<stop stop-color="#A1613F"/>
<stop offset="1" stop-color="#331D12"/>
</linearGradient>
<linearGradient id="paint26_linear_0_1" x1="314.199" y1="138.375" x2="230.049" y2="150.2" gradientUnits="userSpaceOnUse">
<stop stop-color="#A1613F"/>
<stop offset="1" stop-color="#331D12"/>
</linearGradient>
<linearGradient id="paint27_linear_0_1" x1="187.814" y1="110.333" x2="249.373" y2="166.367" gradientUnits="userSpaceOnUse">
<stop stop-color="#A1613F"/>
<stop offset="1" stop-color="#331D12"/>
</linearGradient>
<linearGradient id="paint28_linear_0_1" x1="321.89" y1="137.148" x2="227.535" y2="91.3079" gradientUnits="userSpaceOnUse">
<stop stop-color="#A1613F"/>
<stop offset="1" stop-color="#331D12"/>
</linearGradient>
<linearGradient id="paint29_linear_0_1" x1="320.499" y1="132.581" x2="226.144" y2="86.7416" gradientUnits="userSpaceOnUse">
<stop stop-color="#A1613F"/>
<stop offset="1" stop-color="#331D12"/>
</linearGradient>
<linearGradient id="paint30_linear_0_1" x1="324.763" y1="102.449" x2="219.676" y2="90.3585" gradientUnits="userSpaceOnUse">
<stop stop-color="#A1613F"/>
<stop offset="1" stop-color="#331D12"/>
</linearGradient>
<linearGradient id="paint31_linear_0_1" x1="278.994" y1="197.772" x2="249.517" y2="100.917" gradientUnits="userSpaceOnUse">
<stop stop-color="#A1613F"/>
<stop offset="1" stop-color="#331D12"/>
</linearGradient>
<linearGradient id="paint32_linear_0_1" x1="326.216" y1="98.6249" x2="220.374" y2="99.3211" gradientUnits="userSpaceOnUse">
<stop stop-color="#A1613F"/>
<stop offset="1" stop-color="#331D12"/>
</linearGradient>
<linearGradient id="paint33_linear_0_1" x1="329.594" y1="139.941" x2="235.071" y2="94.4187" gradientUnits="userSpaceOnUse">
<stop stop-color="#A1613F"/>
<stop offset="1" stop-color="#331D12"/>
</linearGradient>
<linearGradient id="paint34_linear_0_1" x1="259.112" y1="152.444" x2="171.142" y2="186.329" gradientUnits="userSpaceOnUse">
<stop stop-color="#BACD3F"/>
<stop offset="1" stop-color="#84A32D"/>
</linearGradient>
<linearGradient id="paint35_linear_0_1" x1="182.029" y1="88.4867" x2="201.305" y2="185.464" gradientUnits="userSpaceOnUse">
<stop stop-color="#A1613F"/>
<stop offset="1" stop-color="#331D12"/>
</linearGradient>
<linearGradient id="paint36_linear_0_1" x1="221.973" y1="115.695" x2="203.276" y2="222.638" gradientUnits="userSpaceOnUse">
<stop stop-color="#A1613F"/>
<stop offset="1" stop-color="#331D12"/>
</linearGradient>
<linearGradient id="paint37_linear_0_1" x1="225.048" y1="172.933" x2="182.294" y2="191.93" gradientUnits="userSpaceOnUse">
<stop stop-color="#A1613F"/>
<stop offset="1" stop-color="#331D12"/>
</linearGradient>
<linearGradient id="paint38_linear_0_1" x1="147.01" y1="181.131" x2="195.631" y2="442.089" gradientUnits="userSpaceOnUse">
<stop stop-color="#A1613F"/>
<stop offset="1" stop-color="#331D12"/>
</linearGradient>
<linearGradient id="paint39_linear_0_1" x1="178.022" y1="272.425" x2="179.168" y2="323.025" gradientUnits="userSpaceOnUse">
<stop stop-color="#E1924D"/>
<stop offset="1" stop-color="#B96C49"/>
</linearGradient>
<linearGradient id="paint40_linear_0_1" x1="151.519" y1="390.861" x2="171.585" y2="257.926" gradientUnits="userSpaceOnUse">
<stop stop-opacity="0"/>
<stop offset="1" stop-color="#FFE44B"/>
</linearGradient>
<linearGradient id="paint41_linear_0_1" x1="286.376" y1="290.629" x2="283.378" y2="293.207" gradientUnits="userSpaceOnUse">
<stop stop-color="#391504"/>
<stop offset="1" stop-color="#5B2607"/>
</linearGradient>
<linearGradient id="paint42_linear_0_1" x1="282.319" y1="291.468" x2="265.425" y2="310.532" gradientUnits="userSpaceOnUse">
<stop stop-color="#C98924"/>
<stop offset="1" stop-color="#925500"/>
</linearGradient>
<linearGradient id="paint43_linear_0_1" x1="281.581" y1="287.973" x2="271.644" y2="309.477" gradientUnits="userSpaceOnUse">
<stop stop-color="#6F360C"/>
<stop offset="1" stop-color="#3E1807"/>
</linearGradient>
<linearGradient id="paint44_linear_0_1" x1="251.031" y1="329.047" x2="254.586" y2="332.104" gradientUnits="userSpaceOnUse">
<stop stop-color="#391504"/>
<stop offset="1" stop-color="#5B2607"/>
</linearGradient>
<linearGradient id="paint45_linear_0_1" x1="255.842" y1="330.042" x2="275.877" y2="352.649" gradientUnits="userSpaceOnUse">
<stop stop-color="#C98924"/>
<stop offset="1" stop-color="#925500"/>
</linearGradient>
<linearGradient id="paint46_linear_0_1" x1="256.718" y1="325.897" x2="268.501" y2="351.397" gradientUnits="userSpaceOnUse">
<stop stop-color="#6F360C"/>
<stop offset="1" stop-color="#3E1807"/>
</linearGradient>
</defs>
</svg>
