<svg width="121" height="27" viewBox="0 0 121 27" fill="none" xmlns="http://www.w3.org/2000/svg">
<path d="M0.0849609 26V1.25391H5.21191V21.7617H15.876V26H0.0849609ZM27.4971 26.376C21.8062 26.3589 18.3198 22.6846 18.3369 16.8057C18.3198 11.0806 21.8574 7.20117 27.292 7.20117C32.1626 7.20117 36.0078 10.2773 36.0078 16.6006V18.0361H23.3271C23.3271 20.8389 24.9849 22.5649 27.5996 22.582C29.3257 22.5649 30.5562 21.813 31.0518 20.7021H35.8711C35.1533 24.1372 32.0771 26.3589 27.4971 26.376ZM23.3271 14.8574H31.2227C31.2056 12.6016 29.6504 10.978 27.3945 10.9951C25.0703 10.978 23.4297 12.7212 23.3271 14.8574ZM38.2979 20.8047C38.3149 16.6689 41.6304 15.3188 45.2021 15.0967C46.5352 15.0112 49.0303 14.8916 49.8164 14.8574V13.3535C49.7993 11.7983 48.7397 10.9097 46.8428 10.8926C45.1167 10.9097 44.04 11.6787 43.7666 12.9434H38.9473C39.2549 9.73047 42.0576 7.20117 46.9795 7.20117C51.0298 7.20117 54.8579 9.0127 54.8408 13.4902V26H50.0557V23.4365H49.9189C49.0132 25.1455 47.2358 26.3589 44.4844 26.3418C40.9297 26.3589 38.3149 24.479 38.2979 20.8047ZM43.1514 20.668C43.1514 22.0864 44.2964 22.8384 45.9199 22.8555C48.2271 22.8384 49.8335 21.3345 49.8164 19.3691V18.019C49.0474 18.0532 46.877 18.1729 46.0225 18.2412C44.2622 18.395 43.1514 19.2324 43.1514 20.668ZM68.5811 7.44043V11.2344H64.8896V26H59.8311V11.2344H57.1992V7.44043H59.8311V6.03906C59.8311 2.12549 62.1895 0.0917969 65.915 0.0917969C67.0601 0.0917969 68.0342 0.194336 68.9229 0.399414V4.22754C68.188 4.15918 67.6582 4.14209 67.3848 4.125C65.7612 4.14209 64.8896 4.75732 64.8896 6.3125V7.44043H68.5811ZM74.5283 26.3076C72.9219 26.3076 71.623 25.0259 71.6572 23.4365C71.623 21.8643 72.9219 20.5825 74.5283 20.5996C76.0493 20.5825 77.3652 21.8643 77.3652 23.4365C77.3652 25.0259 76.0493 26.3076 74.5283 26.3076ZM71.6572 10.4141C71.623 8.8418 72.9219 7.56006 74.5283 7.57715C76.0493 7.56006 77.3652 8.8418 77.3652 10.4141C77.3652 12.0034 76.0493 13.2852 74.5283 13.2852C72.9219 13.2852 71.623 12.0034 71.6572 10.4141ZM86.4912 1.25391V26H81.4326V1.25391H86.4912ZM98.8301 26.376C93.1392 26.3589 89.6528 22.6846 89.6699 16.8057C89.6528 11.0806 93.1904 7.20117 98.625 7.20117C103.496 7.20117 107.341 10.2773 107.341 16.6006V18.0361H94.6602C94.6602 20.8389 96.3179 22.5649 98.9326 22.582C100.659 22.5649 101.889 21.813 102.385 20.7021H107.204C106.486 24.1372 103.41 26.3589 98.8301 26.376ZM94.6602 14.8574H102.556C102.539 12.6016 100.983 10.978 98.7275 10.9951C96.4033 10.978 94.7627 12.7212 94.6602 14.8574ZM120.295 7.44043V11.2344H116.809V20.292C116.792 21.7788 117.526 22.1377 118.552 22.1719C119.064 22.1719 119.953 22.1206 120.568 22.0693V26.0684C120.021 26.1538 119.116 26.2563 117.868 26.2393C114.211 26.2563 111.716 24.6157 111.75 21.0098V11.2344H109.187V7.44043H111.75V2.99707H116.809V7.44043H120.295Z" fill="#ACCD5E"/>
</svg>
