<svg width="239" height="14" viewBox="0 0 239 14" fill="none" xmlns="http://www.w3.org/2000/svg">
<path d="M10.6055 0.164062V5.54004H12.7881V6.49219H10.6055V13.1865H9.46289V0.164062H10.6055ZM0.454102 3.21094V2.25879H3.80859V0.325195H4.95117V2.25879H8.20312V3.21094H0.454102ZM1.20117 7.2832C1.19385 5.52539 2.5415 4.29492 4.39453 4.29492C6.23291 4.29492 7.57324 5.52539 7.58789 7.2832C7.57324 9.04834 6.23291 10.2715 4.39453 10.2715C2.5415 10.2715 1.19385 9.04834 1.20117 7.2832ZM2.2998 7.2832C2.29248 8.46973 3.17871 9.30469 4.39453 9.29004C5.5957 9.30469 6.47461 8.46973 6.48926 7.2832C6.47461 6.104 5.5957 5.25439 4.39453 5.26172C3.17871 5.25439 2.29248 6.104 2.2998 7.2832ZM23.9502 0.691406V4.0752H16.0986V5.75977H24.2285V6.71191H14.9414V3.16699H22.7783V1.62891H14.9121V0.691406H23.9502ZM13.4766 9.01172V8.08887H25.4004V9.01172H19.9805V13.2158H18.8379V9.01172H13.4766ZM38.3643 6.21387V7.12207H26.4404V6.21387H38.3643ZM27.876 9.02637V8.16211H36.8701V10.9307H29.0479V12.1758H37.2949V13.0107H27.8906V10.1396H35.7275V9.02637H27.876ZM27.9492 1.39453V0.55957H36.8262V3.25488H29.1357V4.39746H37.0605V5.23242H27.9932V2.46387H35.6689V1.39453H27.9492ZM49.7314 1.48242V9.87598H43.7256V1.48242H49.7314ZM44.8389 8.93848H48.5889V2.40527H44.8389V8.93848ZM52.1191 13.1865V0.164062H53.2617V5.36426H55.4443V6.36035H53.2617V13.1865H52.1191ZM68.0566 7.7373V8.68945H62.6221V13.1865H61.4941V8.68945H56.1328V7.7373H68.0566ZM57.6709 5.96484V0.896484H66.5039V5.96484H57.6709ZM58.7988 5.05664H65.3613V1.83398H58.7988V5.05664ZM79.8633 0.164062V13.2158H78.7207V0.164062H79.8633ZM69.8438 2.33203V1.37988H75.9082V6.00879H71.0449V9.08496C73.2056 9.09229 75.1318 8.98975 77.4609 8.61621L77.5781 9.58301C75.1831 9.95654 73.2056 10.0518 70.957 10.0518H69.873V5.07129H74.751V2.33203H69.8438ZM92.1533 0.164062V5.54004H94.3359V6.49219H92.1533V13.1865H91.0107V0.164062H92.1533ZM82.002 3.21094V2.25879H85.3564V0.325195H86.499V2.25879H89.751V3.21094H82.002ZM82.749 7.2832C82.7417 5.52539 84.0894 4.29492 85.9424 4.29492C87.7808 4.29492 89.1211 5.52539 89.1357 7.2832C89.1211 9.04834 87.7808 10.2715 85.9424 10.2715C84.0894 10.2715 82.7417 9.04834 82.749 7.2832ZM83.8477 7.2832C83.8403 8.46973 84.7266 9.30469 85.9424 9.29004C87.1436 9.30469 88.0225 8.46973 88.0371 7.2832C88.0225 6.104 87.1436 5.25439 85.9424 5.26172C84.7266 5.25439 83.8403 6.104 83.8477 7.2832ZM101.499 1.46777V3.29883H104.692V0.164062H105.835V13.2158H104.692V7.83984H101.499V9.89062H95.5664V1.46777H101.499ZM96.709 8.96777H100.386V2.37598H96.709V8.96777ZM101.499 6.8877H104.692V4.25098H101.499V6.8877ZM123.955 5.36426V6.33105H121.846V13.1865H120.703V0.164062H121.846V5.36426H123.955ZM112.31 9.87598V1.45312H113.452V8.90918C115.356 8.90918 117.297 8.7627 119.443 8.30859L119.59 9.29004C117.341 9.74414 115.32 9.87598 113.35 9.87598H112.31ZM136.641 6.21387V7.12207H124.717V6.21387H136.641ZM126.152 9.02637V8.16211H135.146V10.9307H127.324V12.1758H135.571V13.0107H126.167V10.1396H134.004V9.02637H126.152ZM126.226 1.39453V0.55957H135.103V3.25488H127.412V4.39746H135.337V5.23242H126.27V2.46387H133.945V1.39453H126.226ZM148.096 1.40918V2.37598H143.276V9.01172C145.627 9.01904 147.173 8.93848 148.975 8.58691L149.121 9.53906C147.202 9.90527 145.613 9.99316 143.115 9.99316H142.119V1.40918H148.096ZM147.319 5.8623V4.91016H151.113V0.164062H152.271V13.2158H151.113V5.8623H147.319ZM168.369 0.164062V2.99121H170.332V3.95801H168.369V6.7998H167.227V0.164062H168.369ZM158.438 3.5332C158.43 1.82666 159.866 0.654785 161.821 0.647461C163.784 0.654785 165.205 1.82666 165.205 3.5332C165.205 5.24707 163.784 6.42627 161.821 6.43359C159.866 6.42627 158.43 5.24707 158.438 3.5332ZM159.565 3.5332C159.558 4.67578 160.518 5.49609 161.821 5.49609C163.118 5.49609 164.084 4.67578 164.077 3.5332C164.084 2.40527 163.118 1.59961 161.821 1.61426C160.518 1.59961 159.558 2.40527 159.565 3.5332ZM160.063 8.33789V7.41504H168.369V10.5938H161.221V12.0879H168.853V13.0107H160.093V9.71484H167.227V8.33789H160.063ZM174.639 1.1748C176.558 1.18213 177.92 2.94727 177.935 5.71582C177.92 8.4917 176.558 10.2495 174.639 10.2422C172.705 10.2495 171.35 8.4917 171.357 5.71582C171.35 2.94727 172.705 1.18213 174.639 1.1748ZM172.441 5.71582C172.449 7.83252 173.35 9.22412 174.639 9.2168C175.942 9.22412 176.821 7.83252 176.821 5.71582C176.821 3.59912 175.942 2.20752 174.639 2.2002C173.35 2.20752 172.449 3.59912 172.441 5.71582ZM180.088 13.1865V0.164062H181.23V5.36426H183.413V6.36035H181.23V13.1865H180.088ZM194.194 0.164062V5.4668H196.304V6.43359H194.194V13.1865H193.052V0.164062H194.194ZM184.204 9.80273C187.566 8.13281 189.397 5.62061 189.661 2.53711H184.805V1.57031H190.825C190.818 5.25439 189.089 8.61621 184.849 10.7109L184.204 9.80273ZM207.612 4.11914V5.04199H198.691V0.647461H199.834V4.11914H207.612ZM197.065 7.75195V6.81445H208.989V7.75195H197.065ZM198.618 12.8643V9.08496H199.761V11.9121H207.686V12.8643H198.618ZM218.438 3.66504C218.43 6.04541 220.049 8.43311 221.968 9.30469L221.265 10.2129C219.778 9.49512 218.496 7.94971 217.874 6.09668C217.273 8.05957 215.991 9.70752 214.468 10.4766L213.735 9.50977C215.676 8.62354 217.28 6.1333 217.295 3.66504V1.29199H218.438V3.66504ZM223.389 13.2158V0.164062H224.546V13.2158H223.389ZM236.953 0.164062V4.13379H238.916V5.10059H236.953V9.7002H235.796V0.164062H236.953ZM226.787 7.26855C229.915 6.29443 231.943 4.44141 232.185 2.1416H227.329V1.1748H233.438C233.438 4.5293 231.042 7.01953 227.285 8.19141L226.787 7.26855ZM228.794 12.9082V8.7334H229.937V11.9414H237.554V12.9082H228.794Z" fill="#8B8988"/>
</svg>
